# xmcd CD database file
#
# Track frame offsets:
#	150
#	12648
#	24691
#	37344
#	50523
#	66125
#	81432
#	94811
#	110017
#	125362
#	139687
#	153297
#	167193
#	180097
#	194391
#	206560
#	220141
#	233493
#	242969
#
# Disc length: 3413 seconds
#
# Revision: 0
# Processed by: cddbd v1.5.2PL0 Copyright (c) Steve Scherf et al.
# Submitted via: CDex 1.70beta2
#
DISCID=0f0d5313
DTITLE=Lionel Hampton - Jazz Roads CD128 - Swing - Lionel Hampton Groups Vol.4 (1939-40)
DYEAR=2006
DGENRE=Jazz
TTITLE0=Lionel Hampton And His Orchestra - Dinah
TTITLE1=Lionel Hampton And His Orchestra - Dinah
TTITLE2=Lionel Hampton And His Orchestra - My Buddy
TTITLE3=Lionel Hampton And His Orchestra - Singin' The Blues
TTITLE4=Lionel Hampton And His Orchestra - Shades Of Jade
TTITLE5=Lionel Hampton And His Orchestra - Till Tom Special
TTITLE6=Lionel Hampton And His Orchestra - Flying Home
TTITLE7=Lionel Hampton And His Orchestra - Save It, Pretty Mama
TTITLE8=Lionel Hampton And His Orchestra - Tempo And Swing
TTITLE9=Lionel Hampton And His Orchestra - House Of Morgan
TTITLE10=Lionel Hampton And His Orchestra - I'd Be Lost Without You
TTITLE11=Lionel Hampton And His Orchestra - Central Avenue Breakdown
TTITLE12=Lionel Hampton And His Orchestra - Jack The Bellboy
TTITLE13=Lionel Hampton And His Orchestra - Dough-Ra-Me
TTITLE14=Lionel Hampton And His Orchestra - Jivin' With Jarvis
TTITLE15=Lionel Hampton And His Orchestra - Blue (Because Of You)
TTITLE16=Lionel Hampton And His Orchestra - I Don't Stand A Ghost Of A Chance
TTITLE17=Lionel Hampton Quartet - Tempo And Swing
TTITLE18=Lionel Hampton Quartet - Flying Home
EXTD=YEAR: 2006
EXTT0=
EXTT1=
EXTT2=
EXTT3=
EXTT4=
EXTT5=
EXTT6=
EXTT7=
EXTT8=
EXTT9=
EXTT10=
EXTT11=
EXTT12=
EXTT13=
EXTT14=
EXTT15=
EXTT16=
EXTT17=
EXTT18=
PLAYORDER=
